<?xml version="1.0" standalone="no"?>
<!DOCTYPE svg PUBLIC "-//W3C//DTD SVG 20010904//EN"
 "http://www.w3.org/TR/2001/REC-SVG-20010904/DTD/svg10.dtd">
<svg version="1.0" xmlns="http://www.w3.org/2000/svg"
 width="481.000000pt" height="519.000000pt" viewBox="0 0 481.000000 519.000000"
 preserveAspectRatio="xMidYMid meet">

<g transform="translate(0.000000,519.000000) scale(0.100000,-0.100000)"
fill="#000000" stroke="none">
<path d="M1969 4716 c-77 -14 -119 -38 -119 -67 0 -61 -56 -103 -106 -80 -32
14 -53 3 -95 -51 -18 -24 -49 -61 -68 -84 -20 -22 -63 -73 -96 -114 -33 -40
-79 -95 -102 -121 -44 -51 -63 -99 -63 -161 0 -52 -17 -83 -61 -113 -50 -33
-56 -75 -16 -107 l22 -18 -45 -37 c-75 -62 -133 -126 -179 -200 -27 -43 -70
-91 -109 -124 -75 -62 -85 -78 -77 -123 4 -20 2 -36 -4 -40 -15 -10 -14 -59 1
-78 29 -36 334 -322 406 -379 42 -34 113 -97 157 -139 48 -47 105 -90 143
-109 72 -36 75 -45 33 -123 -31 -59 -75 -185 -90 -258 -14 -65 -63 -198 -110
-298 -23 -48 -50 -122 -61 -165 -21 -86 -77 -216 -147 -345 -48 -90 -58 -141
-31 -169 15 -14 49 -16 274 -17 229 -1 258 -3 267 -18 13 -20 -4 -160 -33
-278 -38 -154 -72 -472 -57 -532 9 -35 53 -53 82 -34 31 20 42 62 49 181 6
115 29 276 56 385 10 41 24 120 30 175 16 128 13 121 52 128 54 10 785 30 823
23 45 -9 57 -28 104 -168 21 -63 44 -124 50 -136 6 -12 23 -72 36 -133 18 -80
39 -141 75 -213 27 -56 50 -109 50 -118 0 -24 49 -78 71 -78 10 0 29 10 40 21
33 33 20 98 -45 232 -35 73 -58 136 -66 182 -7 39 -27 108 -45 155 -47 122
-78 228 -71 245 5 13 45 15 263 15 l258 1 28 36 c15 20 27 46 27 57 0 12 -16
60 -36 106 -20 47 -52 128 -71 180 -19 52 -53 136 -75 185 -23 50 -51 124 -64
165 -30 100 -140 430 -169 505 -12 33 -26 75 -30 93 -6 31 -5 33 39 52 25 10
78 41 118 68 40 27 110 70 156 97 46 27 117 78 160 113 42 35 109 82 150 104
102 56 163 107 221 184 64 85 79 126 56 160 -13 20 -23 25 -48 22 -25 -2 -41
-15 -77 -63 -72 -95 -130 -147 -220 -197 -47 -26 -112 -70 -145 -98 -33 -28
-86 -68 -118 -88 -32 -20 -110 -70 -172 -110 -63 -40 -127 -75 -143 -78 -29
-6 -30 -4 -55 63 -14 37 -29 79 -33 93 -4 14 -21 54 -39 90 -39 79 -59 136
-50 150 15 24 44 3 149 -105 94 -97 116 -115 141 -115 17 0 35 4 41 8 19 13
34 50 27 68 -3 10 -53 63 -109 120 -110 108 -131 146 -98 171 24 18 83 9 105
-17 9 -10 19 -37 23 -59 8 -55 46 -82 83 -60 24 13 63 94 63 131 0 23 63 36
122 24 56 -12 73 -1 88 55 6 22 17 39 24 39 21 0 46 34 46 64 0 61 -86 100
-125 56 -14 -15 -21 -17 -32 -9 -22 19 -15 40 27 79 30 28 40 45 40 68 0 43
-93 220 -137 259 -31 28 -35 36 -29 66 5 26 0 44 -28 89 -19 31 -52 79 -75
106 -24 28 -48 70 -57 102 -9 29 -29 77 -45 105 -16 28 -29 60 -29 70 0 52
-222 184 -345 206 -33 6 -94 17 -135 25 -100 19 -123 18 -167 -6 -42 -22 -122
-27 -141 -8 -7 7 -12 19 -12 28 0 9 -8 24 -18 33 -22 20 -149 22 -253 3z m246
-215 c29 -6 29 -7 -18 -20 -42 -12 -50 -12 -58 0 -5 8 -9 17 -9 22 0 8 42 8
85 -2z m211 -189 c6 -4 19 -21 28 -39 12 -24 27 -35 56 -43 31 -8 44 -19 59
-49 22 -42 80 -97 118 -112 13 -5 66 -9 117 -9 l93 0 13 -47 c7 -27 21 -77 32
-111 18 -57 20 -83 16 -235 -6 -222 -17 -255 -126 -366 -71 -72 -82 -79 -144
-96 -62 -16 -92 -17 -345 -8 l-278 9 -60 31 c-33 17 -107 64 -165 105 -84 59
-115 88 -157 146 -81 113 -98 176 -98 362 0 192 6 207 92 234 32 10 78 33 103
51 51 37 154 142 162 165 8 21 23 4 38 -43 6 -21 23 -45 36 -54 22 -14 26 -14
49 1 14 10 31 28 37 42 13 27 25 29 63 12 21 -9 32 -8 60 5 21 10 46 14 68 10
29 -4 40 -1 59 20 23 25 53 33 74 19z m-972 -568 c9 -22 7 -104 -1 -104 -5 0
-19 -3 -32 -7 -23 -6 -23 -5 -16 48 9 70 34 102 49 63z m116 -319 c10 -19 11
-28 2 -37 -18 -18 -42 -1 -42 32 0 37 21 40 40 5z m-421 -69 c10 -12 11 -23 2
-47 -16 -48 -13 -83 9 -107 29 -31 54 -27 82 10 31 42 120 130 125 124 3 -3
-11 -31 -31 -63 -41 -66 -45 -94 -16 -123 36 -36 61 -23 126 61 25 33 48 59
50 57 2 -2 -3 -29 -11 -60 -11 -40 -12 -64 -5 -82 11 -30 49 -43 78 -27 28 15
29 15 35 -18 7 -33 31 -61 53 -61 40 0 85 77 108 183 7 31 18 34 40 11 23 -22
20 -46 -18 -164 -19 -58 -42 -138 -51 -178 -18 -80 -51 -169 -70 -190 -18 -20
-66 8 -150 88 -38 37 -110 99 -158 139 -104 86 -391 359 -394 375 -2 6 24 31
57 55 33 25 72 58 88 74 l27 28 6 -35 c3 -19 11 -42 18 -50z m853 -257 c46
-19 84 -23 298 -31 135 -5 274 -6 310 -3 36 3 70 2 77 -3 6 -4 21 -31 32 -60
12 -29 33 -75 47 -104 14 -28 32 -69 39 -92 7 -23 41 -120 75 -216 34 -96 72
-211 85 -255 13 -44 46 -145 75 -225 28 -80 58 -169 66 -198 8 -29 33 -94 55
-145 23 -51 60 -146 84 -212 24 -66 50 -135 57 -153 11 -28 11 -34 -2 -43 -9
-6 -162 -9 -410 -8 -217 1 -525 -3 -685 -9 -455 -18 -869 -25 -883 -14 -10 7
-1 34 41 123 50 106 85 206 102 288 4 19 22 62 40 95 38 70 111 271 125 344
14 73 56 177 132 324 10 21 23 70 27 110 5 40 18 96 29 123 11 28 27 84 36
125 28 127 75 260 92 260 2 0 27 -10 56 -21z"/>
<path d="M2428 4114 c-34 -18 -48 -43 -48 -87 0 -49 38 -82 95 -82 61 0 95 33
95 91 0 74 -74 115 -142 78z"/>
<path d="M1907 4100 c-66 -52 -23 -160 64 -160 29 0 43 7 63 31 15 17 26 43
26 59 0 16 -11 42 -26 59 -31 38 -87 43 -127 11z"/>
<path d="M2380 3662 c-19 -16 -57 -41 -83 -57 -70 -40 -94 -35 -264 54 -46 25
-73 19 -93 -19 -37 -69 137 -181 285 -184 60 -1 78 3 125 29 30 17 74 48 97
71 35 33 43 47 43 77 0 62 -53 75 -110 29z"/>
</g>
</svg>
