<?xml version="1.0" standalone="no"?>
<!DOCTYPE svg PUBLIC "-//W3C//DTD SVG 20010904//EN"
 "http://www.w3.org/TR/2001/REC-SVG-20010904/DTD/svg10.dtd">
<svg version="1.0" xmlns="http://www.w3.org/2000/svg"
 width="481.000000pt" height="480.000000pt" viewBox="0 0 481.000000 480.000000"
 preserveAspectRatio="xMidYMid meet">

<g transform="translate(0.000000,480.000000) scale(0.100000,-0.100000)"
fill="#000000" stroke="none">
<path d="M1966 4515 c-92 -16 -130 -39 -134 -82 -2 -18 -15 -42 -32 -58 -26
-25 -33 -27 -55 -17 -42 19 -63 14 -92 -24 -15 -20 -66 -82 -113 -138 -47 -55
-108 -129 -135 -164 -28 -35 -58 -74 -68 -86 -12 -15 -20 -46 -24 -87 -6 -85
-17 -110 -59 -137 -54 -35 -65 -90 -23 -113 11 -5 19 -13 19 -17 0 -4 -33 -36
-74 -70 -41 -35 -85 -80 -97 -100 -55 -93 -95 -144 -160 -202 -65 -57 -70 -65
-68 -99 1 -20 -4 -48 -11 -63 -19 -40 1 -79 65 -128 29 -23 75 -64 102 -93 53
-57 180 -172 284 -258 37 -29 106 -89 153 -131 49 -43 106 -84 131 -94 54 -20
57 -38 20 -108 -26 -48 -85 -217 -85 -242 0 -27 -71 -228 -110 -311 -22 -48
-49 -122 -60 -165 -23 -94 -61 -186 -136 -331 -37 -72 -56 -120 -56 -144 0
-66 1 -66 294 -67 l263 -1 4 -30 c4 -36 -16 -181 -34 -250 -12 -43 -33 -185
-50 -330 -3 -22 -5 -80 -6 -128 -2 -99 13 -131 59 -125 48 6 62 42 72 188 10
149 34 318 55 395 11 41 22 118 38 264 3 24 28 29 217 40 333 19 644 25 668
12 27 -15 51 -62 87 -171 16 -47 37 -105 47 -129 10 -24 28 -87 39 -140 14
-63 37 -128 69 -191 26 -52 53 -111 59 -131 6 -20 20 -44 30 -54 28 -24 73
-16 89 17 21 44 -3 120 -86 273 -12 22 -30 84 -42 138 -11 53 -27 112 -36 129
-22 43 -84 227 -84 250 0 19 16 20 453 23 62 0 71 3 93 28 47 55 47 57 -51
292 -25 60 -45 114 -45 118 0 5 -15 41 -34 80 -48 100 -65 143 -86 212 -11 33
-40 119 -65 190 -26 72 -58 166 -71 210 -14 44 -36 108 -49 142 -32 79 -31 89
8 102 17 7 79 42 137 80 58 37 135 87 173 111 37 23 101 70 141 104 41 34 106
79 144 100 113 62 196 141 262 248 39 64 17 122 -44 116 -25 -2 -39 -15 -78
-68 -70 -97 -113 -136 -206 -188 -46 -26 -114 -73 -151 -105 -36 -32 -106 -83
-156 -114 -49 -31 -121 -77 -160 -102 -91 -60 -123 -75 -140 -61 -7 6 -25 45
-40 88 -15 42 -45 113 -66 157 -49 99 -59 149 -33 159 15 6 42 -18 129 -108
122 -128 155 -146 194 -107 39 39 28 72 -45 137 -67 58 -164 167 -164 184 0
19 33 40 63 40 46 0 75 -24 83 -68 10 -60 30 -84 67 -80 26 2 36 10 51 42 11
22 22 53 25 70 9 43 42 58 116 51 70 -7 82 -1 99 49 7 21 24 43 37 50 36 17
39 77 5 111 -31 31 -62 32 -93 4 -18 -18 -25 -20 -38 -9 -23 19 -19 31 25 71
32 30 40 44 40 72 0 47 -90 222 -135 263 -29 26 -34 36 -32 71 1 44 -38 114
-109 193 -22 24 -43 62 -54 99 -10 33 -27 72 -38 88 -10 15 -25 45 -31 65 -18
54 -45 83 -114 124 -98 57 -203 95 -312 110 -191 28 -188 28 -225 5 -24 -14
-52 -21 -88 -21 -52 0 -53 1 -69 38 -8 20 -20 40 -27 44 -17 12 -142 7 -230
-7z m224 -215 l25 -7 -29 -12 c-37 -15 -60 -11 -64 12 -4 19 22 21 68 7z m245
-220 c26 -41 30 -44 75 -54 15 -3 33 -19 44 -38 28 -49 66 -87 110 -110 32
-17 54 -19 129 -16 l90 3 14 -45 c8 -25 23 -74 35 -108 18 -57 19 -84 16 -245
-3 -174 -4 -185 -31 -241 -18 -38 -52 -83 -99 -130 -101 -100 -104 -101 -453
-101 -275 0 -281 0 -335 24 -68 31 -276 169 -311 207 -50 55 -97 134 -121 201
-20 60 -23 87 -23 223 0 185 5 199 87 226 29 9 71 29 93 45 58 40 162 143 170
168 10 33 22 25 40 -29 27 -80 70 -92 113 -30 26 38 54 51 67 30 8 -14 48 -13
63 2 6 6 31 11 56 10 35 -2 51 3 73 23 42 36 68 32 98 -15z m-985 -593 c0 -42
-3 -49 -26 -57 -14 -6 -27 -10 -30 -10 -11 0 10 107 24 123 21 24 32 6 32 -56z
m125 -298 c-8 -12 -42 -11 -50 2 -4 5 -4 22 0 37 l7 27 24 -28 c13 -16 22 -33
19 -38z m-439 -30 c13 -29 13 -44 5 -76 -28 -104 74 -156 114 -59 14 33 91
104 101 93 3 -2 -9 -26 -25 -53 -48 -74 -39 -134 19 -134 32 1 47 13 94 78 21
29 41 51 43 48 3 -3 -1 -27 -7 -54 -22 -84 11 -139 67 -113 28 13 43 7 43 -16
0 -25 30 -53 57 -53 12 0 32 9 42 19 18 18 61 135 61 167 0 24 40 16 52 -11 9
-20 5 -40 -20 -117 -17 -51 -42 -140 -56 -198 -31 -131 -59 -204 -79 -208 -27
-5 -80 29 -152 98 -38 37 -93 84 -120 106 -86 67 -263 224 -268 239 -3 7 -41
43 -84 80 -43 37 -78 71 -78 76 0 15 170 148 173 135 2 -6 10 -27 18 -47z
m882 -268 c51 -18 94 -20 363 -24 l304 -4 49 -99 c26 -54 69 -155 93 -224 90
-247 124 -346 138 -395 7 -27 38 -120 70 -205 31 -85 63 -179 71 -209 9 -30
36 -100 60 -155 25 -56 61 -144 80 -196 19 -52 44 -116 56 -142 11 -25 18 -53
15 -61 -5 -13 -72 -16 -459 -21 -249 -3 -541 -10 -648 -15 -107 -5 -351 -13
-542 -17 -373 -7 -368 -8 -335 41 39 56 137 319 137 365 0 9 16 46 35 82 36
69 117 296 129 363 8 44 52 173 65 190 26 32 91 210 91 247 0 23 11 74 25 114
14 40 32 108 41 150 9 43 27 107 40 143 14 36 27 72 29 79 6 17 26 15 93 -7z"/>
<path d="M2414 3911 c-98 -60 -29 -197 81 -161 44 15 65 44 65 91 0 29 -7 43
-31 63 -36 31 -72 33 -115 7z"/>
<path d="M1920 3913 c-76 -28 -73 -136 5 -169 92 -38 167 76 96 147 -29 28
-63 36 -101 22z"/>
<path d="M2360 3454 c-57 -46 -112 -74 -144 -74 -33 0 -118 34 -164 65 -62 42
-122 29 -122 -27 0 -66 143 -152 272 -165 49 -5 65 -2 121 25 74 34 139 89
157 132 10 25 10 34 -4 55 -24 36 -62 32 -116 -11z"/>
</g>
</svg>
